<?xml version="1.0" encoding="utf-8"?>
<!-- Generator: Adobe Illustrator 23.0.2, SVG Export Plug-In . SVG Version: 6.00 Build 0)  -->
<svg version="1.1" id="Camada_1" xmlns="http://www.w3.org/2000/svg" xmlns:xlink="http://www.w3.org/1999/xlink" x="0px" y="0px"
	 viewBox="0 0 256 256" style="enable-background:new 0 0 256 256;" xml:space="preserve">
<style type="text/css">
	.st0{fill:#FFE55E;}
	.st1{fill:url(#SVGID_1_);}
	.st2{opacity:0.2;fill:#FFFFFF;enable-background:new    ;}
	.st3{fill:#FFDD55;}
	.st4{opacity:0.1;enable-background:new    ;}
	.st5{fill:url(#SVGID_2_);}
	.st6{fill-rule:evenodd;clip-rule:evenodd;fill:#81796E;}
	.st7{fill-rule:evenodd;clip-rule:evenodd;fill:#EA7A00;}
</style>
<g>
	<g>
		<path class="st0" d="M128,91.13H1.6V33.2c0-5.82,4.72-10.53,10.53-10.53h89.53L128,43.73V91.13z"/>
		
			<linearGradient id="SVGID_1_" gradientUnits="userSpaceOnUse" x1="64.8" y1="235.3333" x2="64.8" y2="166.8667" gradientTransform="matrix(1 0 0 -1 0 258)">
			<stop  offset="0" style="stop-color:#000000;stop-opacity:0"/>
			<stop  offset="1" style="stop-color:#000000;stop-opacity:0.1"/>
		</linearGradient>
		<path class="st1" d="M128,91.13H1.6V33.2c0-5.82,4.72-10.53,10.53-10.53h89.53L128,43.73V91.13z"/>
		<path class="st2" d="M101.67,22.67H12.13C6.32,22.67,1.6,27.38,1.6,33.2v2.63c0-5.82,4.72-10.53,10.53-10.53h89.53L128,46.37
			v-2.63L101.67,22.67z"/>
		<path class="st3" d="M243.87,43.73H128L101.67,64.8H12.13C6.32,64.8,1.6,69.52,1.6,75.33v136.93c0,5.82,4.72,10.53,10.53,10.53
			h231.73c5.82,0,10.53-4.72,10.53-10.53v-158C254.4,48.45,249.68,43.73,243.87,43.73z"/>
		<path class="st4" d="M243.87,220.17H12.13c-5.82,0-10.53-4.72-10.53-10.53v2.63c0,5.82,4.72,10.53,10.53,10.53h231.73
			c5.82,0,10.53-4.72,10.53-10.53v-2.63C254.4,215.45,249.68,220.17,243.87,220.17z"/>
		<path class="st2" d="M243.87,43.73H128L101.67,64.8H12.13C6.32,64.8,1.6,69.52,1.6,75.33v2.63c0-5.82,4.72-10.53,10.53-10.53
			h89.53L128,46.37h115.87c5.82,0,10.53,4.72,10.53,10.53v-2.63C254.4,48.45,249.68,43.73,243.87,43.73z"/>
		
			<linearGradient id="SVGID_2_" gradientUnits="userSpaceOnUse" x1="-15.0487" y1="191.4381" x2="262.9796" y2="61.7914" gradientTransform="matrix(1 0 0 -1 0 258)">
			<stop  offset="0" style="stop-color:#FFFFFF;stop-opacity:0.2"/>
			<stop  offset="1" style="stop-color:#FFFFFF;stop-opacity:0"/>
		</linearGradient>
		<path class="st5" d="M243.87,43.73H128l-26.33-21.07H12.13C6.32,22.67,1.6,27.38,1.6,33.2v179.07c0,5.82,4.72,10.53,10.53,10.53
			h31.6v5.27c0,2.91,2.36,5.27,5.27,5.27h31.6c2.91,0,5.27-2.36,5.27-5.27v-5.27h84.27v5.27c0,2.91,2.36,5.27,5.27,5.27H207
			c2.91,0,5.27-2.36,5.27-5.27v-5.27h31.6c5.82,0,10.53-4.72,10.53-10.53v-158C254.4,48.45,249.68,43.73,243.87,43.73z"/>
	</g>
	<g id="XMLID_36_">
		<path class="st6" d="M151.76,110.41c-32.51,0-51.76,10.81-51.76,42.01c0,12.91,11.89,26.32,23.81,37.47
			c11.18,10.47,22.66,20.23,27.96,20.23c5.3,0,16.77-9.76,27.96-20.23c11.91-11.15,23.81-24.57,23.81-37.47
			C203.52,121.23,184.27,110.41,151.76,110.41z M130,137.51c0-2.8,2.27-5.07,5.07-5.07c2.8,0,5.07,2.27,5.07,5.07
			c0,2.8-2.27,5.07-5.07,5.07C132.27,142.58,130,140.31,130,137.51z M151.76,180.15c-8.21,0-14.86-5.39-14.86-12.04
			c0-6.65,6.65-12.04,14.86-12.04c8.21,0,14.86,5.39,14.86,12.04C166.62,174.76,159.97,180.15,151.76,180.15z M168.45,142.58
			c-2.8,0-5.07-2.27-5.07-5.07c0-2.8,2.27-5.07,5.07-5.07c2.8,0,5.07,2.27,5.07,5.07C173.52,140.31,171.25,142.58,168.45,142.58z"/>
		<path id="XMLID_5_" class="st6" d="M94.91,141.09c-10.42,0.29-14.22-13.97-9.89-22.2c4.37-7.8,9.34-9.43,12.75-9.43
			c4.18,0,9.05,0.99,11.45,6.15C101.89,121.34,96.85,129.6,94.91,141.09"/>
		<path id="XMLID_4_" class="st7" d="M151.76,60.36c2.98,0.03,4.87,17.62,6.56,21.34c0.87,1.91,2.4,0.88,3.54-2.02
			c2.93-7.46,8.69-17.14,10.09-16.77c1.38,0.37,0.35,10.73-0.48,18.49c-0.37,3.47,0.9,3.96,3.01,1.18c0.69-0.9,4.65-6.17,6.31-5.76
			c0.39,0.1,0.85,0.42,0.93,2.45c0.06,1.51,1.89,0.73,4.43-1.66c3.76-3.53,7.45-7.03,8.28-6.3c0.77,0.68-1.15,6.37-2.96,11.62
			c-1.14,3.3-0.78,4.88,0.99,3.72c0.78-0.51,3.5-2.28,4.29-1.27c0.2,0.26,0.54,0.64-0.27,2.86c-0.57,1.55,1.2,1.2,4.15-0.65
			c4.02-2.51,8.05-4.97,8.66-4.41c0.82,0.76-1.82,5.58-4.65,10.81c-1.66,3.07,0.25,3.31,2.23,2.07c1.97-1.24,5.53-2.72,6.65-2.98
			c1.12-0.27,5.6-3.13,1.94,6.46c-0.64,1.68,1.09,2.16,2.59,1.8c4.04-0.96,5.72-1.75,10.34-1.75c0.69,0,1.64,0.08,2.09,0.78
			c0.58,0.91,0.01,2.35-5.73,8.23c-0.7,0.72-0.59,1.37,1.52,1.81c12.46,2.64,11.65,4.88,11.47,5.51c-0.19,0.64-2.62,1.46-5.79,3.07
			c-2.21,1.12-1.54,3.01,1.52,4.68c8.14,4.42,7.68,6.15,7.59,6.52c-0.07,0.31-0.24,0.92-2.01,1.39c-1.38,0.36-0.54,1.78,1.8,3.58
			c2.1,1.64,3.86,3.05,3.56,3.81c-0.3,0.76-2.46,1.04-5.11,1.49c-2.93,0.47-3.77,2.04-2.03,3.84c2.65,2.71,2.26,3.41,1.97,3.75
			c-0.3,0.34-1.09,0.67-2.48,0.62c-1.4-0.05-0.88,0.5-0.27,0.93c1.28,0.88,7.54,5.83,7.32,6.88c-0.09,0.48-1.93,0.14-4.52-0.39
			c-2.52-0.5-3.69-1.05-3.28,0.49c0.41,1.54-1.66,2.5-3.26,2.71c-0.74,0.1-1.7,0.16-2.91,0.15c-3.06,0-3.59,2.92-5.29,5.64
			c-7.19,11.47-21.68,19.25-31.92,20.45c8.77-9.44,16.92-21.04,16.92-33.1c0-1.85-0.07-3.63-0.19-5.35
			c14.81-0.3,20.68-19.2,14.48-30.98l-0.04-0.07l-0.04-0.07c-3.79-6.77-9.77-12.49-17.97-12.49c-7.01,0-13.15,2.49-16.47,8.79
			c-9.92-5.62-22.89-7.83-37.52-7.83c-14.63,0-27.6,2.21-37.52,7.83c-3.32-6.3-9.47-8.79-16.47-8.79c-8.2,0-14.18,5.72-17.97,12.49
			l-0.04,0.07l-0.04,0.07c-6.21,11.78-0.33,30.68,14.48,30.98c-0.12,1.72-0.19,3.5-0.19,5.35c0,12.05,8.15,23.66,16.92,33.1
			c-10.24-1.2-24.73-8.98-31.92-20.45c-1.7-2.72-2.23-5.64-5.29-5.64c-1.21,0.01-2.17-0.05-2.91-0.15c-1.6-0.22-3.67-1.17-3.26-2.71
			c0.41-1.54-0.76-1-3.28-0.49c-2.59,0.53-4.43,0.87-4.52,0.39c-0.22-1.05,6.04-6,7.32-6.88c0.61-0.42,1.13-0.98-0.27-0.93
			c-1.39,0.05-2.18-0.28-2.48-0.62c-0.3-0.34-0.69-1.04,1.97-3.75c1.74-1.8,0.91-3.36-2.03-3.84c-2.66-0.44-4.81-0.73-5.11-1.49
			c-0.3-0.76,1.46-2.17,3.56-3.81c2.33-1.8,3.17-3.22,1.8-3.58c-1.77-0.47-1.94-1.08-2.01-1.39c-0.09-0.38-0.55-2.1,7.59-6.52
			c3.06-1.66,3.73-3.55,1.52-4.68c-3.17-1.61-5.6-2.42-5.79-3.07c-0.19-0.63-1-2.87,11.47-5.51c2.11-0.45,2.22-1.09,1.52-1.81
			c-5.75-5.89-6.32-7.32-5.73-8.23c0.45-0.7,1.4-0.78,2.09-0.78c4.61,0,6.3,0.79,10.34,1.75c1.5,0.36,3.23-0.13,2.59-1.8
			c-3.67-9.59,0.82-6.72,1.94-6.46c1.12,0.27,4.68,1.75,6.65,2.98c1.97,1.24,3.89,0.99,2.23-2.07c-2.83-5.22-5.47-10.05-4.65-10.81
			c0.61-0.57,4.64,1.9,8.66,4.41c2.96,1.84,4.72,2.2,4.15,0.65c-0.81-2.22-0.48-2.6-0.27-2.86c0.78-1.01,3.51,0.76,4.29,1.27
			c1.77,1.17,2.13-0.42,0.99-3.72c-1.81-5.25-3.73-10.94-2.96-11.62c0.83-0.73,4.52,2.77,8.28,6.3c2.54,2.38,4.37,3.17,4.43,1.66
			c0.08-2.02,0.53-2.35,0.93-2.45c1.66-0.4,5.63,4.86,6.31,5.76c2.11,2.78,3.38,2.29,3.01-1.18c-0.83-7.76-1.86-18.12-0.48-18.49
			c1.39-0.37,7.15,9.31,10.09,16.77c1.14,2.9,2.67,3.93,3.54,2.02C146.89,77.98,148.78,60.39,151.76,60.36"/>
		<path id="XMLID_3_" class="st6" d="M208.61,141.09c10.42,0.29,14.22-13.97,9.89-22.2c-4.37-7.8-9.34-9.43-12.75-9.43
			c-4.18,0-9.05,0.99-11.45,6.15C201.63,121.34,206.67,129.6,208.61,141.09"/>
		<path class="st6" d="M151.76,162.27c-4.77,0-8.64,2.62-8.64,5.85c0,3.23,3.87,5.85,8.64,5.85c4.77,0,8.65-2.62,8.65-5.85
			C160.41,164.89,156.53,162.27,151.76,162.27z M151.76,165.93c-3.73,0-6.44,2.38-6.37,1.58c0.2-2.31,3.83-3.65,6.37-3.65
			c2.54,0,6.17,1.34,6.37,3.65C158.19,168.31,155.49,165.93,151.76,165.93z"/>
	</g>
</g>
</svg>
